# xmcd CD database file
#
# Track frame offsets:
#	150
#	14123
#	26040
#	39641
#	52598
#	65711
#	81216
#	93946
#	106404
#	121442
#	134363
#	146726
#	159095
#	173055
#	190770
#	206832
#	221517
#	234714
#	248782
#	262641
#	276170
#	291394
#
# Disc length: 4059 seconds
#
# Revision: 3
# Processed by: cddbd v1.5.1PL0 Copyright (c) Steve Scherf et al.
# Submitted via: CDex 1.51
#
DISCID=420fd916
DTITLE=Various Artist - Swinging Ballroom Berlin II - 4. Reisefieber
DYEAR=1900
DGENRE=Jazz
TTITLE0=Orchester Will Glahé - Reisefieber
TTITLE1=Orchester Will Glahé - Tatjana
TTITLE2=Orchester Will Glahé - Matrosenball auf Batavia
TTITLE3=Orchester Will Glahé - Bella Fiametta
TTITLE4=Kurt Engel mit seinen Tantrhythmikern - Wo die weißen Lotusblüten blüh'n
TTITLE5=Kurt Engel mit seinen Tantrhythmikern - Bauklötzer
TTITLE6=Emil Roosz mit seinem Tanzorchester - Wenn die Sonja russisch tanzt
TTITLE7=Emil Roosz mit seinem Tanzorchester - Valentina
TTITLE8=Heinz Wehner mit seinem Tanzorchester - Fatamorgana
TTITLE9=Heinz Wehner mit seinem Tanzorchester - Braunes Mädel aus Havana
TTITLE10=Oskar Joost Tanzorchester - Hexentanz
TTITLE11=Oskar Joost Tanzorchester - Senorita!
TTITLE12=Oskar Joost Tanzorchester - Warum bin ich bloß kein Torero?
TTITLE13=Franz Thon mit seinem Orchester - Destiny
TTITLE14=Franz Thon mit seinem Orchester - Ti-Pi-Tin
TTITLE15=Michael Jary mit seinem Smyphonietanzorchester - Der Japaner auf Kuba
TTITLE16=Michael Jary mit seinem Smyphonietanzorchester - Der Hamburger in Afrika
TTITLE17=Hans Rehmstedt mit seinem Orchester - Sahara
TTITLE18=Hans Rehmstedt mit seinem Orchester - Amazonas
TTITLE19=Horst Winter mit seinen Solisten - Congo
TTITLE20=Willy Berking mit seinem Orchester - Pampas
TTITLE21=Willy Berking mit seinem Orchester - Atlantis
EXTD=
EXTT0=
EXTT1=
EXTT2=
EXTT3=
EXTT4=
EXTT5=
EXTT6=
EXTT7=
EXTT8=
EXTT9=
EXTT10=
EXTT11=
EXTT12=
EXTT13=
EXTT14=
EXTT15=
EXTT16=
EXTT17=
EXTT18=
EXTT19=
EXTT20=
EXTT21=
PLAYORDER=
